<?xml version="1.0" encoding="UTF-8" standalone="no"?>
<!-- Created with Inkscape (http://www.inkscape.org/) -->

<svg
   width="114mm"
   height="81mm"
   viewBox="0 0 114 81"
   version="1.1"
   id="svg1"
   inkscape:version="1.3.2 (091e20ef0f, 2023-11-25, custom)"
   sodipodi:docname="automat.svg"
   xmlns:inkscape="http://www.inkscape.org/namespaces/inkscape"
   xmlns:sodipodi="http://sodipodi.sourceforge.net/DTD/sodipodi-0.dtd"
   xmlns="http://www.w3.org/2000/svg"
   xmlns:svg="http://www.w3.org/2000/svg">
  <sodipodi:namedview
     id="namedview1"
     pagecolor="#ffffff"
     bordercolor="#000000"
     borderopacity="0.25"
     inkscape:showpageshadow="2"
     inkscape:pageopacity="0.0"
     inkscape:pagecheckerboard="0"
     inkscape:deskcolor="#d1d1d1"
     inkscape:document-units="mm"
     showgrid="true"
     inkscape:zoom="2.3055371"
     inkscape:cx="192.36298"
     inkscape:cy="158.96513"
     inkscape:window-width="1920"
     inkscape:window-height="1163"
     inkscape:window-x="0"
     inkscape:window-y="37"
     inkscape:window-maximized="1"
     inkscape:current-layer="layer1">
    <inkscape:grid
       id="grid1"
       units="mm"
       originx="0"
       originy="0"
       spacingx="0.5"
       spacingy="0.5"
       empcolor="#0099e5"
       empopacity="0.30196078"
       color="#0099e5"
       opacity="0.14901961"
       empspacing="1"
       dotted="false"
       gridanglex="30"
       gridanglez="30"
       visible="true" />
  </sodipodi:namedview>
  <defs
     id="defs1">
    <marker
       style="overflow:visible"
       id="ArrowWideHeavy"
       refX="0"
       refY="0"
       orient="auto-start-reverse"
       inkscape:stockid="Wide, heavy arrow"
       markerWidth="1"
       markerHeight="1"
       viewBox="0 0 1 1"
       inkscape:isstock="true"
       inkscape:collect="always"
       preserveAspectRatio="xMidYMid">
      <path
         style="fill:context-stroke;fill-rule:evenodd;stroke:none"
         d="m 1,0 -3,3 h -2 l 3,-3 -3,-3 h 2 z"
         id="path3" />
    </marker>
  </defs>
  <g
     inkscape:label="Layer 1"
     inkscape:groupmode="layer"
     id="layer1">
    <rect
       style="fill:none;stroke:#000000;stroke-width:0.564999"
       id="rect1"
       width="69"
       height="51"
       x="21"
       y="15" />
    <path
       style="fill:none;stroke:#000000;stroke-width:0.565;stroke-dasharray:none;marker-end:url(#ArrowWideHeavy)"
       d="M 4.2843796,40.500001 H 21"
       id="path1" />
    <path
       style="fill:none;stroke:#000000;stroke-width:0.564999;stroke-dasharray:none;marker-end:url(#ArrowWideHeavy)"
       d="M 89.999999,40.500001 H 112.38883"
       id="path2" />
    <g
       inkscape:label=""
       transform="matrix(3.870234,0,0,5.3651438,47.885332,29.858362)"
       id="g4">
      <g
         fill="#000000"
         fill-opacity="1"
         id="g2"
         transform="matrix(0.352778,0,0,0.352778,-0.84089,-0.506457)">
        <g
           id="use1"
           transform="translate(1.993,11.795)">
          <path
             d="m 8.53125,-2.359375 c 0.078125,0.890625 0.25,1.5625 0.3125,1.828125 0.171875,0.640625 0.234375,0.96875 0.859375,0.96875 0.640625,0 1.75,-0.65625 1.75,-0.9375 0,-0.078125 -0.0625,-0.109375 -0.140625,-0.109375 -0.1875,0 -0.484375,0.171875 -0.53125,0.1875 -0.09375,0.0625 -0.125,0.0625 -0.15625,0.0625 -0.390625,0 -0.484375,-0.390625 -0.65625,-1.25 C 9.875,-2.078125 9.734375,-2.65625 9.625,-4.625 9.53125,-6.078125 9.46875,-7.546875 9.46875,-9.015625 c 0,-0.34375 0.015625,-0.703125 0.015625,-1.046875 0,-0.234375 0,-0.296875 -0.15625,-0.296875 -0.203125,0 -0.796875,0.25 -1.046875,0.640625 L 8.171875,-9.5625 c -1.125,2.421875 -2.1875,4.15625 -2.9375,5.3125 -0.84375,1.3125 -2.34375,3.640625 -3.109375,3.640625 -0.53125,0 -0.984375,-0.34375 -1.109375,-0.859375 C 1,-1.484375 0.96875,-1.578125 0.921875,-1.578125 c -0.21875,0 -0.53125,0.6875 -0.53125,1.09375 0,0.578125 0.609375,1.203125 1.28125,1.203125 1,0 2.640625,-2.578125 2.96875,-3.078125 z M 8.25,-8.59375 v 0.828125 c 0,0.84375 0.03125,1.671875 0.0625,2.5 0.015625,0.28125 0.078125,1.359375 0.15625,2.109375 h -2.625 c -0.234375,0 -0.453125,0 -0.828125,0.234375 C 6.03125,-4.46875 6.859375,-5.96875 6.9375,-6.125 7.65625,-7.40625 8.046875,-8.234375 8.234375,-8.59375 Z m 0,0"
             id="path4" />
        </g>
      </g>
    </g>
    <g
       inkscape:label=""
       transform="matrix(1.1524273,0,0,2.1856101,1.9999993,27.999997)"
       id="g9">
      <g
         fill="#000000"
         fill-opacity="1"
         id="g5"
         transform="matrix(0.352778,0,0,0.352778,-0.846402,-0.702336)">
        <g
           id="use4"
           transform="translate(1.993,12.275)">
          <path
             d="m 6.796875,-5.859375 c -0.453125,0.09375 -0.625,0.4375 -0.625,0.703125 0,0.34375 0.265625,0.46875 0.46875,0.46875 0.4375,0 0.734375,-0.375 0.734375,-0.765625 0,-0.59375 -0.6875,-0.875 -1.296875,-0.875 -0.875,0 -1.359375,0.859375 -1.484375,1.140625 C 4.265625,-6.265625 3.375,-6.328125 3.109375,-6.328125 1.65625,-6.328125 0.875,-4.453125 0.875,-4.125 0.875,-4.078125 0.9375,-4 1.03125,-4 1.140625,-4 1.171875,-4.09375 1.203125,-4.140625 1.6875,-5.734375 2.65625,-6.03125 3.0625,-6.03125 c 0.65625,0 0.78125,0.59375 0.78125,0.9375 0,0.3125 -0.078125,0.640625 -0.265625,1.328125 l -0.484375,1.96875 c -0.203125,0.859375 -0.625,1.65625 -1.390625,1.65625 -0.0625,0 -0.421875,0 -0.734375,-0.1875 0.515625,-0.109375 0.640625,-0.53125 0.640625,-0.703125 0,-0.28125 -0.21875,-0.453125 -0.484375,-0.453125 -0.34375,0 -0.71875,0.296875 -0.71875,0.75 0,0.609375 0.671875,0.875 1.28125,0.875 0.6875,0 1.1875,-0.546875 1.484375,-1.125 0.234375,0.84375 0.9375,1.125 1.46875,1.125 1.46875,0 2.25,-1.875 2.25,-2.1875 0,-0.078125 -0.0625,-0.140625 -0.15625,-0.140625 -0.125,0 -0.140625,0.078125 -0.171875,0.1875 -0.390625,1.265625 -1.234375,1.859375 -1.875,1.859375 -0.5,0 -0.765625,-0.375 -0.765625,-0.96875 0,-0.3125 0.046875,-0.546875 0.28125,-1.484375 l 0.5,-1.953125 C 4.921875,-5.40625 5.40625,-6.03125 6.0625,-6.03125 c 0.03125,0 0.4375,0 0.734375,0.171875 z m 0,0"
             id="path8" />
        </g>
      </g>
      <g
         fill="#000000"
         fill-opacity="1"
         id="g6"
         transform="matrix(0.352778,0,0,0.352778,-0.846402,-0.702336)">
        <g
           id="use5"
           transform="translate(13.96,12.275)">
          <path
             d="m 9.453125,-8.546875 c 0.25,0 0.5,0 0.5,-0.28125 0,-0.296875 -0.25,-0.296875 -0.5,-0.296875 H 5.59375 c -2.46875,0 -4.40625,1.875 -4.40625,4.140625 0,2.3125 1.984375,4.171875 4.40625,4.171875 h 3.859375 c 0.25,0 0.5,0 0.5,-0.296875 0,-0.28125 -0.25,-0.28125 -0.5,-0.28125 H 5.625 c -2.265625,0 -3.859375,-1.671875 -3.859375,-3.578125 0,-1.9375 1.640625,-3.578125 3.859375,-3.578125 z m -7.46875,9.9375 c -0.25,0 -0.5,0 -0.5,0.28125 0,0.296875 0.25,0.296875 0.5,0.296875 h 7.46875 c 0.25,0 0.5,0 0.5,-0.296875 0,-0.28125 -0.25,-0.28125 -0.5,-0.28125 z m 0,0"
             id="path9" />
        </g>
      </g>
      <g
         fill="#000000"
         fill-opacity="1"
         id="g7"
         transform="matrix(0.352778,0,0,0.352778,-0.846402,-0.702336)">
        <g
           id="use6"
           transform="translate(29.103001,12.275)">
          <path
             d="m 8.875,-8.203125 c 0.484375,-0.78125 0.9375,-1.125 1.671875,-1.171875 0.140625,-0.015625 0.25,-0.015625 0.25,-0.28125 0,-0.046875 -0.03125,-0.140625 -0.15625,-0.140625 -0.25,0 -0.875,0.03125 -1.125,0.03125 -0.421875,0 -0.859375,-0.03125 -1.25,-0.03125 -0.125,0 -0.265625,0 -0.265625,0.265625 0,0.140625 0.140625,0.15625 0.1875,0.15625 0.53125,0.03125 0.59375,0.296875 0.59375,0.46875 0,0.21875 -0.203125,0.546875 -0.21875,0.5625 l -4.5,7.140625 -1,-7.734375 c 0,-0.421875 0.734375,-0.4375 0.890625,-0.4375 0.21875,0 0.34375,0 0.34375,-0.28125 0,-0.140625 -0.15625,-0.140625 -0.1875,-0.140625 -0.25,0 -0.53125,0.03125 -0.78125,0.03125 H 2.53125 c -1.046875,0 -1.484375,-0.03125 -1.5,-0.03125 -0.078125,0 -0.25,0 -0.25,0.265625 0,0.15625 0.09375,0.15625 0.328125,0.15625 0.734375,0 0.765625,0.125 0.8125,0.484375 l 1.140625,8.84375 c 0.046875,0.3125 0.046875,0.34375 0.25,0.34375 0.171875,0 0.25,-0.03125 0.390625,-0.265625 z m 0,0"
             id="path10" />
        </g>
      </g>
      <g
         fill="#000000"
         fill-opacity="1"
         id="g8"
         transform="matrix(0.352778,0,0,0.352778,-0.846402,-0.702336)">
        <g
           id="use7"
           transform="translate(40.414001,7.0689998)">
          <path
             d="m 3,-4.65625 c 0.015625,-0.15625 0.015625,-0.421875 -0.28125,-0.421875 -0.171875,0 -0.3125,0.15625 -0.28125,0.296875 v 0.140625 l 0.15625,1.6875 L 1.203125,-3.96875 C 1.09375,-4.03125 1.078125,-4.046875 1,-4.046875 c -0.15625,0 -0.296875,0.15625 -0.296875,0.3125 0,0.171875 0.109375,0.21875 0.21875,0.265625 l 1.546875,0.75 -1.5,0.71875 c -0.171875,0.09375 -0.265625,0.140625 -0.265625,0.296875 0,0.171875 0.140625,0.3125 0.296875,0.3125 0.078125,0 0.09375,0 0.375,-0.21875 l 1.21875,-0.875 -0.15625,1.828125 c 0,0.234375 0.1875,0.28125 0.28125,0.28125 0.125,0 0.296875,-0.078125 0.296875,-0.28125 L 2.84375,-2.484375 4.25,-1.46875 c 0.09375,0.046875 0.109375,0.078125 0.1875,0.078125 0.15625,0 0.296875,-0.15625 0.296875,-0.3125 0,-0.15625 -0.09375,-0.21875 -0.234375,-0.28125 C 3.84375,-2.3125 3.828125,-2.3125 2.96875,-2.71875 l 1.5,-0.734375 c 0.171875,-0.078125 0.265625,-0.125 0.265625,-0.28125 0,-0.171875 -0.140625,-0.3125 -0.296875,-0.3125 -0.078125,0 -0.09375,0 -0.375,0.203125 l -1.21875,0.890625 z m 0,0"
             id="path11" />
        </g>
      </g>
    </g>
    <g
       inkscape:label=""
       transform="matrix(1.2742063,0,0,1.9884105,91.434437,29.276611)"
       id="g20">
      <g
         fill="#000000"
         fill-opacity="1"
         id="g13"
         transform="matrix(0.352778,0,0,0.352778,-0.84089,-0.701984)">
        <g
           id="g12"
           transform="translate(1.993,12.274)">
          <path
             d="m 3.765625,1.609375 c -0.375,0.546875 -0.9375,1.03125 -1.640625,1.03125 -0.171875,0 -0.859375,-0.03125 -1.078125,-0.6875 C 1.09375,1.96875 1.15625,1.96875 1.1875,1.96875 c 0.4375,0 0.71875,-0.375 0.71875,-0.703125 C 1.90625,0.9375 1.640625,0.8125 1.421875,0.8125 1.1875,0.8125 0.6875,0.984375 0.6875,1.6875 c 0,0.734375 0.625,1.234375 1.4375,1.234375 1.4375,0 2.875,-1.3125 3.28125,-2.90625 l 1.40625,-5.59375 c 0.015625,-0.078125 0.046875,-0.15625 0.046875,-0.25 0,-0.203125 -0.171875,-0.359375 -0.390625,-0.359375 -0.125,0 -0.4375,0.0625 -0.546875,0.5 l -1.0625,4.203125 c -0.0625,0.265625 -0.0625,0.296875 -0.1875,0.453125 -0.28125,0.40625 -0.75,0.890625 -1.4375,0.890625 -0.8125,0 -0.875,-0.796875 -0.875,-1.171875 0,-0.828125 0.375,-1.921875 0.765625,-2.96875 0.15625,-0.40625 0.25,-0.609375 0.25,-0.890625 0,-0.609375 -0.4375,-1.15625 -1.140625,-1.15625 -1.3125,0 -1.84375,2.078125 -1.84375,2.203125 0,0.046875 0.046875,0.125 0.15625,0.125 C 0.671875,-4 0.6875,-4.0625 0.75,-4.265625 1.09375,-5.46875 1.640625,-6.03125 2.1875,-6.03125 c 0.140625,0 0.375,0 0.375,0.46875 0,0.375 -0.15625,0.78125 -0.375,1.328125 -0.703125,1.875 -0.703125,2.359375 -0.703125,2.703125 0,1.359375 0.984375,1.671875 1.703125,1.671875 0.40625,0 0.921875,-0.125 1.4375,-0.65625 L 4.640625,-0.5 c -0.21875,0.84375 -0.359375,1.40625 -0.875,2.109375 z m 0,0"
             id="path12" />
        </g>
      </g>
      <g
         fill="#000000"
         fill-opacity="1"
         id="g15"
         transform="matrix(0.352778,0,0,0.352778,-0.84089,-0.701984)">
        <g
           id="g14"
           transform="translate(13.341,12.274)">
          <path
             d="m 9.453125,-8.546875 c 0.25,0 0.5,0 0.5,-0.28125 0,-0.296875 -0.25,-0.296875 -0.5,-0.296875 H 5.59375 c -2.46875,0 -4.40625,1.875 -4.40625,4.140625 0,2.3125 1.984375,4.171875 4.40625,4.171875 h 3.859375 c 0.25,0 0.5,0 0.5,-0.296875 0,-0.28125 -0.25,-0.28125 -0.5,-0.28125 H 5.625 c -2.265625,0 -3.859375,-1.671875 -3.859375,-3.578125 0,-1.9375 1.640625,-3.578125 3.859375,-3.578125 z m -7.46875,9.9375 c -0.25,0 -0.5,0 -0.5,0.28125 0,0.296875 0.25,0.296875 0.5,0.296875 h 7.46875 c 0.25,0 0.5,0 0.5,-0.296875 0,-0.28125 -0.25,-0.28125 -0.5,-0.28125 z m 0,0"
             id="path13" />
        </g>
      </g>
      <g
         fill="#000000"
         fill-opacity="1"
         id="g17"
         transform="matrix(0.352778,0,0,0.352778,-0.84089,-0.701984)">
        <g
           id="g16"
           transform="translate(28.485001,12.274)">
          <path
             d="m 12.953125,-8.203125 c 0.328125,-0.5625 0.640625,-1.09375 1.5,-1.171875 0.140625,-0.015625 0.265625,-0.03125 0.265625,-0.265625 0,-0.15625 -0.125,-0.15625 -0.171875,-0.15625 -0.03125,0 -0.125,0.03125 -1.078125,0.03125 -0.4375,0 -0.875,-0.03125 -1.296875,-0.03125 -0.07813,0 -0.25,0 -0.25,0.265625 0,0.140625 0.109375,0.15625 0.203125,0.15625 0.28125,0.015625 0.734375,0.09375 0.734375,0.546875 0,0.171875 -0.04687,0.28125 -0.1875,0.515625 L 8.75,-1.453125 8.234375,-8.921875 c 0,-0.171875 0.15625,-0.4375 0.953125,-0.453125 0.1875,0 0.34375,0 0.34375,-0.28125 0,-0.140625 -0.15625,-0.140625 -0.21875,-0.140625 -0.5,0 -1.03125,0.03125 -1.546875,0.03125 h -0.75 c -0.21875,0 -0.46875,-0.03125 -0.6875,-0.03125 -0.09375,0 -0.265625,0 -0.265625,0.265625 0,0.15625 0.109375,0.15625 0.34375,0.15625 0.671875,0 0.671875,0.015625 0.71875,0.890625 l 0.046875,0.515625 -3.71875,6.515625 -0.53125,-7.390625 c 0,-0.171875 0,-0.515625 0.984375,-0.53125 0.15625,0 0.3125,0 0.3125,-0.265625 0,-0.15625 -0.125,-0.15625 -0.21875,-0.15625 -0.5,0 -1.03125,0.03125 -1.546875,0.03125 h -0.75 c -0.21875,0 -0.46875,-0.03125 -0.6875,-0.03125 -0.078125,0 -0.25,0 -0.25,0.265625 0,0.15625 0.109375,0.15625 0.3125,0.15625 0.671875,0 0.6875,0.078125 0.71875,0.546875 l 0.625,8.796875 C 2.4375,0.21875 2.453125,0.296875 2.625,0.296875 2.765625,0.296875 2.796875,0.25 2.921875,0.03125 l 4.28125,-7.46875 0.53125,7.40625 c 0.015625,0.25 0.03125,0.328125 0.203125,0.328125 0.140625,0 0.1875,-0.0625 0.296875,-0.265625 z m 0,0"
             id="path15" />
        </g>
      </g>
      <g
         fill="#000000"
         fill-opacity="1"
         id="g19"
         transform="matrix(0.352778,0,0,0.352778,-0.84089,-0.701984)">
        <g
           id="g18"
           transform="translate(43.696999,7.0679998)">
          <path
             d="m 3,-4.65625 c 0.015625,-0.15625 0.015625,-0.421875 -0.28125,-0.421875 -0.171875,0 -0.3125,0.15625 -0.28125,0.296875 v 0.140625 l 0.15625,1.6875 L 1.203125,-3.96875 C 1.09375,-4.03125 1.078125,-4.046875 1,-4.046875 c -0.15625,0 -0.296875,0.15625 -0.296875,0.3125 0,0.171875 0.109375,0.21875 0.21875,0.265625 l 1.546875,0.75 -1.5,0.71875 c -0.171875,0.09375 -0.265625,0.140625 -0.265625,0.296875 0,0.171875 0.140625,0.3125 0.296875,0.3125 0.078125,0 0.09375,0 0.375,-0.21875 l 1.21875,-0.875 -0.15625,1.828125 c 0,0.234375 0.1875,0.28125 0.28125,0.28125 0.125,0 0.296875,-0.078125 0.296875,-0.28125 L 2.84375,-2.484375 4.25,-1.46875 c 0.09375,0.046875 0.109375,0.078125 0.1875,0.078125 0.15625,0 0.296875,-0.15625 0.296875,-0.3125 0,-0.15625 -0.09375,-0.21875 -0.234375,-0.28125 C 3.84375,-2.3125 3.828125,-2.3125 2.96875,-2.71875 l 1.5,-0.734375 c 0.171875,-0.078125 0.265625,-0.125 0.265625,-0.28125 0,-0.171875 -0.140625,-0.3125 -0.296875,-0.3125 -0.078125,0 -0.09375,0 -0.375,0.203125 l -1.21875,0.890625 z m 0,0"
             id="path17" />
        </g>
      </g>
    </g>
  </g>
</svg>
