<?xml version="1.0" encoding="UTF-8" standalone="no"?>
<!-- Created with Inkscape (http://www.inkscape.org/) -->

<svg
   width="114mm"
   height="81mm"
   viewBox="0 0 114 81"
   version="1.1"
   id="svg1"
   inkscape:version="1.3.2 (091e20ef0f, 2023-11-25, custom)"
   sodipodi:docname="command.svg"
   xmlns:inkscape="http://www.inkscape.org/namespaces/inkscape"
   xmlns:sodipodi="http://sodipodi.sourceforge.net/DTD/sodipodi-0.dtd"
   xmlns="http://www.w3.org/2000/svg"
   xmlns:svg="http://www.w3.org/2000/svg">
  <sodipodi:namedview
     id="namedview1"
     pagecolor="#ffffff"
     bordercolor="#000000"
     borderopacity="0.25"
     inkscape:showpageshadow="2"
     inkscape:pageopacity="0.0"
     inkscape:pagecheckerboard="0"
     inkscape:deskcolor="#d1d1d1"
     inkscape:document-units="mm"
     showgrid="true"
     inkscape:zoom="1.9755556"
     inkscape:cx="149.07199"
     inkscape:cy="195.13498"
     inkscape:window-width="1920"
     inkscape:window-height="1163"
     inkscape:window-x="0"
     inkscape:window-y="37"
     inkscape:window-maximized="1"
     inkscape:current-layer="layer1">
    <inkscape:grid
       id="grid1"
       units="mm"
       originx="0"
       originy="0"
       spacingx="0.5"
       spacingy="0.5"
       empcolor="#0099e5"
       empopacity="0.30196078"
       color="#0099e5"
       opacity="0.14901961"
       empspacing="2"
       dotted="false"
       gridanglex="30"
       gridanglez="30"
       visible="true" />
  </sodipodi:namedview>
  <defs
     id="defs1">
    <marker
       style="overflow:visible"
       id="marker4"
       refX="0"
       refY="0"
       orient="auto-start-reverse"
       inkscape:stockid="Wide, heavy arrow"
       markerWidth="1"
       markerHeight="1"
       viewBox="0 0 1 1"
       inkscape:isstock="true"
       inkscape:collect="always"
       preserveAspectRatio="xMidYMid">
      <path
         style="fill:context-stroke;fill-rule:evenodd;stroke:none"
         d="m 1,0 -3,3 h -2 l 3,-3 -3,-3 h 2 z"
         id="path4" />
    </marker>
    <marker
       style="overflow:visible"
       id="ArrowWideHeavy"
       refX="0"
       refY="0"
       orient="auto-start-reverse"
       inkscape:stockid="Wide, heavy arrow"
       markerWidth="1"
       markerHeight="1"
       viewBox="0 0 1 1"
       inkscape:isstock="true"
       inkscape:collect="always"
       preserveAspectRatio="xMidYMid">
      <path
         style="fill:context-stroke;fill-rule:evenodd;stroke:none"
         d="m 1,0 -3,3 h -2 l 3,-3 -3,-3 h 2 z"
         id="path3" />
    </marker>
  </defs>
  <g
     inkscape:label="Layer 1"
     inkscape:groupmode="layer"
     id="layer1">
    <rect
       style="fill:none;stroke:#000000;stroke-width:0.565;stroke-dasharray:none"
       id="rect1"
       width="72"
       height="52"
       x="22"
       y="11.999999" />
    <path
       style="fill:none;stroke:#000000;stroke-width:0.564999;stroke-dasharray:none;marker-end:url(#ArrowWideHeavy)"
       d="M 3.7144171,37.999998 H 22"
       id="path1" />
    <path
       style="fill:none;stroke:#000000;stroke-width:0.564999;stroke-dasharray:none;marker-end:url(#marker4)"
       d="M 94.000001,35.999999 H 112"
       id="path2" />
    <g
       inkscape:label=""
       transform="matrix(9.8800634,0,0,9.0932802,39.441996,20)"
       id="g5">
      <g
         fill="#000000"
         fill-opacity="1"
         id="g2"
         transform="matrix(0.352778,0,0,0.352778,-0.84089,-0.506457)">
        <g
           id="use1"
           transform="translate(1.993,11.795)">
          <path
             d="m 8.53125,-2.359375 c 0.078125,0.890625 0.25,1.5625 0.3125,1.828125 0.171875,0.640625 0.234375,0.96875 0.859375,0.96875 0.640625,0 1.75,-0.65625 1.75,-0.9375 0,-0.078125 -0.0625,-0.109375 -0.140625,-0.109375 -0.1875,0 -0.484375,0.171875 -0.53125,0.1875 -0.09375,0.0625 -0.125,0.0625 -0.15625,0.0625 -0.390625,0 -0.484375,-0.390625 -0.65625,-1.25 C 9.875,-2.078125 9.734375,-2.65625 9.625,-4.625 9.53125,-6.078125 9.46875,-7.546875 9.46875,-9.015625 c 0,-0.34375 0.015625,-0.703125 0.015625,-1.046875 0,-0.234375 0,-0.296875 -0.15625,-0.296875 -0.203125,0 -0.796875,0.25 -1.046875,0.640625 L 8.171875,-9.5625 c -1.125,2.421875 -2.1875,4.15625 -2.9375,5.3125 -0.84375,1.3125 -2.34375,3.640625 -3.109375,3.640625 -0.53125,0 -0.984375,-0.34375 -1.109375,-0.859375 C 1,-1.484375 0.96875,-1.578125 0.921875,-1.578125 c -0.21875,0 -0.53125,0.6875 -0.53125,1.09375 0,0.578125 0.609375,1.203125 1.28125,1.203125 1,0 2.640625,-2.578125 2.96875,-3.078125 z M 8.25,-8.59375 v 0.828125 c 0,0.84375 0.03125,1.671875 0.0625,2.5 0.015625,0.28125 0.078125,1.359375 0.15625,2.109375 h -2.625 c -0.234375,0 -0.453125,0 -0.828125,0.234375 C 6.03125,-4.46875 6.859375,-5.96875 6.9375,-6.125 7.65625,-7.40625 8.046875,-8.234375 8.234375,-8.59375 Z m 0,0"
             id="path5" />
        </g>
      </g>
    </g>
    <g
       inkscape:label=""
       transform="matrix(3.5011273,0,0,4.632656,5.6031243,19.999997)"
       id="g8">
      <g
         fill="#000000"
         fill-opacity="1"
         id="g7"
         transform="matrix(0.352778,0,0,0.352778,-0.829866,-0.704894)">
        <g
           id="g6"
           transform="translate(1.993,11.795)">
          <path
             d="M 6.8125,-5.828125 5.46875,-8.96875 C 5.65625,-9.3125 6.078125,-9.359375 6.25,-9.375 c 0.09375,0 0.25,-0.015625 0.25,-0.265625 0,-0.15625 -0.125,-0.15625 -0.21875,-0.15625 -0.25,0 -0.53125,0.03125 -0.765625,0.03125 h -0.84375 c -0.875,0 -1.5,-0.03125 -1.515625,-0.03125 -0.109375,0 -0.265625,0 -0.265625,0.265625 0,0.15625 0.140625,0.15625 0.328125,0.15625 0.828125,0 0.890625,0.140625 1.03125,0.484375 L 5.953125,-4.90625 2.84375,-1.578125 C 2.328125,-1.015625 1.703125,-0.46875 0.640625,-0.421875 0.46875,-0.40625 0.359375,-0.40625 0.359375,-0.140625 0.359375,-0.09375 0.375,0 0.53125,0 0.734375,0 0.953125,-0.03125 1.140625,-0.03125 h 0.6875 C 2.28125,-0.03125 2.78125,0 3.234375,0 3.328125,0 3.5,0 3.5,-0.265625 3.5,-0.40625 3.40625,-0.421875 3.3125,-0.421875 3.03125,-0.4375 2.84375,-0.609375 2.84375,-0.828125 c 0,-0.25 0.171875,-0.421875 0.578125,-0.84375 L 4.703125,-3.0625 c 0.3125,-0.34375 1.078125,-1.171875 1.390625,-1.484375 l 1.515625,3.53125 c 0,0.03125 0.0625,0.171875 0.0625,0.1875 0,0.125 -0.3125,0.390625 -0.765625,0.40625 -0.09375,0 -0.25,0.015625 -0.25,0.28125 C 6.65625,0 6.796875,0 6.875,0 7.109375,0 7.40625,-0.03125 7.640625,-0.03125 H 9.21875 C 9.484375,-0.03125 9.75,0 10,0 c 0.09375,0 0.25,0 0.25,-0.265625 0,-0.15625 -0.140625,-0.15625 -0.265625,-0.15625 C 9.125,-0.4375 9.09375,-0.5 8.84375,-1.03125 L 6.953125,-5.484375 8.78125,-7.4375 C 8.921875,-7.578125 9.25,-7.9375 9.375,-8.078125 10,-8.71875 10.578125,-9.3125 11.734375,-9.375 c 0.140625,-0.015625 0.28125,-0.015625 0.28125,-0.265625 0,-0.15625 -0.125,-0.15625 -0.1875,-0.15625 -0.203125,0 -0.40625,0.03125 -0.609375,0.03125 H 10.5625 c -0.46875,0 -0.96875,-0.03125 -1.40625,-0.03125 -0.109375,0 -0.28125,0 -0.28125,0.265625 0,0.140625 0.109375,0.15625 0.1875,0.15625 0.234375,0.015625 0.46875,0.140625 0.46875,0.40625 v 0.03125 c -0.015625,0.109375 -0.046875,0.25 -0.203125,0.421875 z m 0,0"
             id="path6" />
        </g>
      </g>
    </g>
    <g
       inkscape:label=""
       transform="matrix(3.1694285,0,0,4.1453747,97.825455,19.999997)"
       id="g11">
      <g
         fill="#000000"
         fill-opacity="1"
         id="g10"
         transform="matrix(0.352778,0,0,0.352778,-0.868451,-0.704894)">
        <g
           id="g9"
           transform="translate(1.993,11.795)">
          <path
             d="M 8.4375,-8.203125 8.765625,-8.53125 c 0.625,-0.65625 1.15625,-0.8125 1.65625,-0.84375 0.15625,-0.015625 0.296875,-0.03125 0.296875,-0.28125 0,-0.140625 -0.140625,-0.140625 -0.171875,-0.140625 -0.171875,0 -0.359375,0.03125 -0.53125,0.03125 h -0.59375 c -0.40625,0 -0.859375,-0.03125 -1.265625,-0.03125 -0.09375,0 -0.25,0 -0.25,0.265625 0,0.140625 0.140625,0.15625 0.1875,0.15625 0.421875,0.015625 0.421875,0.234375 0.421875,0.328125 0,0.15625 -0.109375,0.375 -0.390625,0.703125 l -3.421875,3.90625 -1.625,-4.359375 C 3,-9 3,-9.015625 3,-9.046875 3,-9.359375 3.578125,-9.375 3.765625,-9.375 c 0.171875,0 0.328125,0 0.328125,-0.265625 0,-0.15625 -0.140625,-0.15625 -0.21875,-0.15625 -0.25,0 -0.53125,0.03125 -0.78125,0.03125 H 1.5 c -0.25,0 -0.53125,-0.03125 -0.765625,-0.03125 -0.109375,0 -0.265625,0 -0.265625,0.265625 0,0.15625 0.140625,0.15625 0.34375,0.15625 0.703125,0 0.84375,0.125 0.96875,0.453125 l 1.78125,4.78125 c 0.015625,0.03125 0.046875,0.203125 0.046875,0.234375 0,0.046875 -0.703125,2.875 -0.734375,3.015625 C 2.75,-0.5 2.609375,-0.4375 1.6875,-0.421875 c -0.234375,0 -0.359375,0 -0.359375,0.28125 C 1.328125,0 1.484375,0 1.53125,0 1.796875,0 2.09375,-0.03125 2.359375,-0.03125 H 4.0625 C 4.3125,-0.03125 4.625,0 4.875,0 c 0.109375,0 0.28125,0 0.28125,-0.265625 0,-0.15625 -0.109375,-0.15625 -0.34375,-0.15625 -0.890625,0 -0.890625,-0.09375 -0.890625,-0.25 0,-0.109375 0.109375,-0.5625 0.1875,-0.84375 L 4.625,-3.578125 c 0.078125,-0.3125 0.078125,-0.34375 0.203125,-0.484375 z m 0,0"
             id="path8" />
        </g>
      </g>
    </g>
  </g>
</svg>
