<?xml version="1.0" encoding="UTF-8" standalone="no"?>
<!-- Created with Inkscape (http://www.inkscape.org/) -->

<svg
   width="297mm"
   height="210mm"
   viewBox="0 0 297 210"
   version="1.1"
   id="svg1"
   inkscape:version="1.3.2 (091e20ef0f, 2023-11-25, custom)"
   sodipodi:docname="config2.svg"
   xmlns:inkscape="http://www.inkscape.org/namespaces/inkscape"
   xmlns:sodipodi="http://sodipodi.sourceforge.net/DTD/sodipodi-0.dtd"
   xmlns="http://www.w3.org/2000/svg"
   xmlns:svg="http://www.w3.org/2000/svg">
  <sodipodi:namedview
     id="namedview1"
     pagecolor="#ffffff"
     bordercolor="#000000"
     borderopacity="0.25"
     inkscape:showpageshadow="2"
     inkscape:pageopacity="0.0"
     inkscape:pagecheckerboard="0"
     inkscape:deskcolor="#d1d1d1"
     inkscape:document-units="mm"
     showgrid="true"
     inkscape:zoom="1.6302609"
     inkscape:cx="295.96489"
     inkscape:cy="246.27959"
     inkscape:window-width="1920"
     inkscape:window-height="1163"
     inkscape:window-x="0"
     inkscape:window-y="37"
     inkscape:window-maximized="1"
     inkscape:current-layer="layer1">
    <inkscape:grid
       id="grid1"
       units="mm"
       originx="0"
       originy="0"
       spacingx="1"
       spacingy="0.99999998"
       empcolor="#0099e5"
       empopacity="0.30196078"
       color="#0099e5"
       opacity="0.14901961"
       empspacing="5"
       dotted="false"
       gridanglex="30"
       gridanglez="30"
       visible="true" />
  </sodipodi:namedview>
  <defs
     id="defs1">
    <marker
       style="overflow:visible"
       id="ArrowWide"
       refX="0"
       refY="0"
       orient="auto-start-reverse"
       inkscape:stockid="Wide arrow"
       markerWidth="1"
       markerHeight="1"
       viewBox="0 0 1 1"
       inkscape:isstock="true"
       inkscape:collect="always"
       preserveAspectRatio="xMidYMid">
      <path
         style="fill:none;stroke:context-stroke;stroke-width:1;stroke-linecap:butt"
         d="M 3,-3 0,0 3,3"
         transform="rotate(180,0.125,0)"
         sodipodi:nodetypes="ccc"
         id="path1" />
    </marker>
  </defs>
  <g
     inkscape:label="Layer 1"
     inkscape:groupmode="layer"
     id="layer1">
    <rect
       style="fill:none;stroke:#000000;stroke-width:1;stroke-dasharray:none"
       id="rect1"
       width="19.999998"
       height="20"
       x="15"
       y="45.000004" />
    <rect
       style="fill:none;stroke:#000000;stroke-width:1;stroke-dasharray:none"
       id="rect1-9"
       width="19.999998"
       height="20"
       x="35"
       y="45" />
    <rect
       style="fill:none;stroke:#000000;stroke-width:1.29793;stroke-dasharray:none"
       id="rect1-0"
       width="34.202065"
       height="19.702068"
       x="55.148968"
       y="45.148968" />
    <rect
       style="fill:none;stroke:#000000;stroke-width:1;stroke-dasharray:none"
       id="rect1-4"
       width="19.999998"
       height="20"
       x="89.351028"
       y="44.851036" />
    <rect
       style="fill:none;stroke:#000000;stroke-width:1;stroke-dasharray:none"
       id="rect1-6"
       width="19.999998"
       height="20"
       x="109.35103"
       y="44.851036" />
    <path
       id="rect1-5"
       style="fill:none;stroke:#000000;stroke-width:1.21672;stroke-dasharray:none"
       d="m 129.45928,44.95953 v 19.783288 h 22.40432 c 0.1498,-0.533513 0.29155,-1.07066 0.51831,-1.577681 0.15172,-0.322542 0.35294,-0.625779 0.46457,-0.963766 0.10999,-0.543498 0.24537,-1.081758 0.43357,-1.602486 0.0205,-0.146862 0.0398,-0.293917 0.0615,-0.440283 0.042,-0.23782 0.10858,-0.468444 0.1571,-0.70435 -0.38056,-0.866057 -0.63839,-1.784787 -0.73846,-2.724898 -0.0187,-0.297737 -0.0549,-0.59465 -0.0558,-0.892969 -7e-4,-0.243804 0.0282,-0.48695 0.0512,-0.729671 0.0295,-0.3119 0.0668,-0.626528 0.12506,-0.936377 -0.1289,-0.728924 -0.21633,-1.464259 -0.30127,-2.199866 -0.13589,-0.405462 -0.31323,-0.79758 -0.41031,-1.214396 -0.10807,-0.495613 -0.18648,-0.995444 -0.16278,-1.505334 0.001,-0.507541 0.001,-1.014866 0.004,-1.522388 0.004,-0.547242 0.01,-1.094675 0.0238,-1.64176 0.0107,-0.375429 0.0224,-0.751798 0.0465,-1.127063 z" />
    <text
       xml:space="preserve"
       style="font-size:12.3472px;fill:none;stroke:#000000;stroke-width:1;stroke-dasharray:none"
       x="19.999998"
       y="60.000004"
       id="text9"><tspan
         sodipodi:role="line"
         id="tspan9"
         style="stroke-width:1"
         x="19.999998"
         y="60.000004" /></text>
    <g
       inkscape:label=""
       transform="matrix(2.4809191,0,0,2.2214355,21.000002,50.81837)"
       id="g9">
      <g
         fill="#000000"
         fill-opacity="1"
         id="g2"
         transform="matrix(0.352778,0,0,0.352778,-1.27084,-0.708863)">
        <g
           id="use1"
           transform="translate(1.993,13.525)">
          <path
             d="m 6.8125,-10.578125 c 0.03125,-0.34375 0.03125,-0.9375 -0.625,-0.9375 -0.390625,0 -0.703125,0.3125 -0.640625,0.640625 v 0.3125 L 5.890625,-6.71875 2.71875,-9.015625 C 2.5,-9.140625 2.453125,-9.1875 2.28125,-9.1875 c -0.34375,0 -0.671875,0.34375 -0.671875,0.6875 0,0.390625 0.25,0.5 0.5,0.625 L 5.625,-6.1875 2.203125,-4.53125 c -0.390625,0.1875 -0.59375,0.296875 -0.59375,0.671875 0,0.359375 0.328125,0.6875 0.671875,0.6875 0.171875,0 0.21875,0 0.84375,-0.46875 L 5.890625,-5.65625 5.53125,-1.484375 c 0,0.515625 0.4375,0.640625 0.640625,0.640625 0.296875,0 0.671875,-0.171875 0.671875,-0.640625 l -0.375,-4.171875 3.171875,2.3125 c 0.21875,0.125 0.265625,0.171875 0.453125,0.171875 0.34375,0 0.65625,-0.34375 0.65625,-0.6875 0,-0.375 -0.21875,-0.5 -0.515625,-0.65625 C 8.75,-5.25 8.703125,-5.25 6.734375,-6.171875 l 3.421875,-1.65625 C 10.5625,-8.03125 10.75,-8.125 10.75,-8.5 c 0,-0.375 -0.3125,-0.6875 -0.65625,-0.6875 -0.1875,0 -0.234375,0 -0.84375,0.46875 l -2.78125,2 z m 0,0"
             id="path2" />
        </g>
      </g>
    </g>
    <ellipse
       style="fill:none;stroke:#000000;stroke-width:1;stroke-dasharray:none"
       id="path9"
       cx="25"
       cy="55"
       rx="6.9999995"
       ry="7" />
    <ellipse
       style="fill:#000000;fill-opacity:1;stroke:#000000;stroke-width:1;stroke-dasharray:none"
       id="path11"
       cx="72.297134"
       cy="60"
       rx="0.99999994"
       ry="1" />
    <ellipse
       style="fill:#000000;fill-opacity:1;stroke:#000000;stroke-width:1;stroke-dasharray:none"
       id="path11-7"
       cx="81"
       cy="60"
       rx="0.99999994"
       ry="1" />
    <ellipse
       style="fill:#000000;fill-opacity:1;stroke:#000000;stroke-width:1;stroke-dasharray:none"
       id="path11-9"
       cx="63.594265"
       cy="60"
       rx="0.99999994"
       ry="1" />
    <ellipse
       style="fill:#000000;fill-opacity:1;stroke:#000000;stroke-width:0.97517;stroke-dasharray:none"
       id="path11-2"
       cx="140.39856"
       cy="61"
       rx="0.93929422"
       ry="1.0124152" />
    <ellipse
       style="fill:#000000;fill-opacity:1;stroke:#000000;stroke-width:0.97517;stroke-dasharray:none"
       id="path11-7-7"
       cx="148.57312"
       cy="61"
       rx="0.93929422"
       ry="1.0124152" />
    <ellipse
       style="fill:#000000;fill-opacity:1;stroke:#000000;stroke-width:0.97517;stroke-dasharray:none"
       id="path11-9-6"
       cx="132.224"
       cy="61"
       rx="0.93929422"
       ry="1.0124152" />
    <rect
       style="fill:none;fill-opacity:1;stroke:#000000;stroke-width:0.5;stroke-dasharray:none"
       id="rect11"
       width="11.999999"
       height="12"
       x="114"
       y="50" />
    <path
       style="fill:none;fill-opacity:1;stroke:#000000;stroke-width:0.6;stroke-dasharray:none;marker-end:url(#ArrowWide)"
       d="m 24.999998,90.105517 10e-7,-25.105516"
       id="path12" />
    <path
       style="fill:none;fill-opacity:1;stroke:#000000;stroke-width:0.600001;stroke-dasharray:none"
       d="m 110,44.999999 c 0,0 -5.5,-14.916729 -40.000003,-14.999999 -34.5,-0.08327 -34.999999,14.999999 -34.999999,14.999999"
       id="path13" />
    <g
       inkscape:label=""
       transform="translate(28.999998,76.725332)"
       id="g16">
      <g
         fill="#000000"
         fill-opacity="1"
         id="g3"
         transform="matrix(0.352778,0,0,0.352778,-1.04484,-0.614583)">
        <g
           id="use2"
           transform="translate(1.993,12.664)">
          <path
             d="m 10.921875,-10.6875 c 0,-0.109375 -0.09375,-0.21875 -0.21875,-0.21875 -0.203125,0 -1.15625,0.890625 -1.640625,1.765625 -0.4375,-1.125 -1.203125,-1.78125 -2.265625,-1.78125 -2.8125,0 -5.828125,3.609375 -5.828125,7.28125 0,2.453125 1.4375,3.890625 3.125,3.890625 1.3125,0 2.40625,-1 2.921875,-1.5625 L 7.03125,-1.28125 6.09375,2.421875 5.875,3.328125 C 5.65625,4.0625 5.28125,4.0625 4.109375,4.09375 c -0.265625,0 -0.515625,0 -0.515625,0.46875 0,0.171875 0.140625,0.25 0.328125,0.25 0.34375,0 0.78125,-0.046875 1.140625,-0.046875 h 2.515625 c 0.375,0 0.796875,0.046875 1.171875,0.046875 0.140625,0 0.4375,0 0.4375,-0.46875 0,-0.25 -0.1875,-0.25 -0.5625,-0.25 -1.171875,0 -1.234375,-0.171875 -1.234375,-0.375 0,-0.125 0.015625,-0.15625 0.09375,-0.46875 z M 7.4375,-2.953125 C 7.3125,-2.53125 7.3125,-2.484375 6.96875,-2 c -0.546875,0.6875 -1.640625,1.75 -2.8125,1.75 -1.015625,0 -1.578125,-0.921875 -1.578125,-2.375 0,-1.359375 0.765625,-4.140625 1.234375,-5.1875 0.84375,-1.734375 2.015625,-2.625 2.984375,-2.625 1.625,0 1.953125,2.03125 1.953125,2.234375 0,0.03125 -0.078125,0.34375 -0.09375,0.390625 z m 0,0"
             id="path4" />
        </g>
      </g>
      <g
         fill="#000000"
         fill-opacity="1"
         id="g4"
         transform="matrix(0.352778,0,0,0.352778,-1.04484,-0.614583)">
        <g
           id="use3"
           transform="translate(12.754,21.34)">
          <path
             d="m 11.046875,-9.96875 c 0.5,0 0.703125,0 0.703125,-0.46875 0,-0.25 -0.203125,-0.25 -0.640625,-0.25 H 9.09375 c 0.46875,-2.546875 0.8125,-4.3125 1.015625,-5.09375 0.15625,-0.59375 0.671875,-1.171875 1.3125,-1.171875 0.515625,0 1.046875,0.21875 1.296875,0.453125 -0.96875,0.09375 -1.265625,0.8125 -1.265625,1.234375 0,0.5 0.375,0.796875 0.84375,0.796875 0.484375,0 1.234375,-0.421875 1.234375,-1.359375 0,-1.046875 -1.046875,-1.625 -2.125,-1.625 -1.078125,0 -2.109375,0.796875 -2.609375,1.765625 -0.453125,0.875 -0.6875,1.765625 -1.265625,5 H 5.875 c -0.46875,0 -0.71875,0 -0.71875,0.453125 0,0.265625 0.140625,0.265625 0.640625,0.265625 h 1.59375 C 6.9375,-7.65625 5.921875,-2.0625 5.359375,0.59375 4.9375,2.75 4.5625,4.5625 3.328125,4.5625 c -0.078125,0 -0.796875,0 -1.25,-0.46875 C 3.34375,3.984375 3.34375,2.90625 3.34375,2.875 3.34375,2.375 2.96875,2.078125 2.5,2.078125 2,2.078125 1.265625,2.5 1.265625,3.4375 c 0,1.078125 1.09375,1.625 2.0625,1.625 2.515625,0 3.5625,-4.546875 3.828125,-5.78125 0.453125,-1.90625 1.671875,-8.5 1.796875,-9.25 z m 0,0"
             id="path5" />
        </g>
      </g>
    </g>
    <g
       inkscape:label=""
       transform="translate(100.38177,24.77624)"
       id="g17">
      <g
         fill="#000000"
         fill-opacity="1"
         id="g5"
         transform="matrix(0.352778,0,0,0.352778,-0.940109,-0.709216)">
        <g
           id="use4"
           transform="translate(1.993,22.521)">
          <path
             d="M 6.515625,2.78125 C 5.84375,3.71875 4.875,4.5625 3.671875,4.5625 3.375,4.5625 2.1875,4.515625 1.8125,3.375 1.890625,3.390625 2,3.390625 2.0625,3.390625 2.796875,3.390625 3.296875,2.75 3.296875,2.1875 3.296875,1.609375 2.828125,1.40625 2.453125,1.40625 2.0625,1.40625 1.1875,1.703125 1.1875,2.921875 1.1875,4.1875 2.25,5.0625 3.671875,5.0625 c 2.46875,0 4.984375,-2.28125 5.671875,-5.03125 l 2.421875,-9.671875 c 0.03125,-0.125 0.07813,-0.265625 0.07813,-0.421875 0,-0.375 -0.296875,-0.625 -0.671875,-0.625 -0.21875,0 -0.734375,0.109375 -0.9375,0.84375 l -1.82813,7.296875 c -0.125,0.4375 -0.125,0.484375 -0.328125,0.765625 -0.5,0.6875 -1.3125,1.53125 -2.5,1.53125 C 4.1875,-0.25 4.0625,-1.609375 4.0625,-2.28125 c 0,-1.40625 0.671875,-3.3125 1.34375,-5.109375 0.265625,-0.71875 0.421875,-1.0625 0.421875,-1.5625 0,-1.03125 -0.75,-1.96875 -1.96875,-1.96875 -2.265625,0 -3.1875,3.59375 -3.1875,3.78125 0,0.109375 0.09375,0.234375 0.265625,0.234375 0.234375,0 0.25,-0.109375 0.34375,-0.453125 0.609375,-2.078125 1.546875,-3.078125 2.515625,-3.078125 0.21875,0 0.640625,0 0.640625,0.828125 0,0.640625 -0.28125,1.359375 -0.640625,2.296875 -1.21875,3.25 -1.21875,4.0625 -1.21875,4.65625 0,2.359375 1.6875,2.90625 2.921875,2.90625 0.71875,0 1.609375,-0.21875 2.484375,-1.140625 L 8,-0.875 C 7.625,0.59375 7.390625,1.5625 6.515625,2.78125 Z m 0,0"
             id="path8" />
        </g>
      </g>
      <g
         fill="#000000"
         fill-opacity="1"
         id="g6"
         transform="matrix(0.352778,0,0,0.352778,-0.940109,-0.709216)">
        <g
           id="use5"
           transform="translate(21.601,22.521)">
          <path
             d="m 13.578125,-5.703125 c 0.421875,0 0.875,0 0.875,-0.484375 0,-0.5 -0.453125,-0.5 -0.875,-0.5 h -10.5 C 3.375,-10.015625 6.21875,-12.390625 9.71875,-12.390625 h 3.859375 c 0.421875,0 0.875,0 0.875,-0.5 0,-0.484375 -0.453125,-0.484375 -0.875,-0.484375 h -3.90625 c -4.25,0 -7.609375,3.21875 -7.609375,7.1875 0,3.953125 3.359375,7.171875 7.609375,7.171875 h 3.90625 c 0.421875,0 0.875,0 0.875,-0.484375 C 14.453125,0 14,0 13.578125,0 H 9.71875 C 6.21875,0 3.375,-2.375 3.078125,-5.703125 Z m 0,0"
             id="path16" />
        </g>
      </g>
      <g
         fill="#000000"
         fill-opacity="1"
         id="g7"
         transform="matrix(0.352778,0,0,0.352778,-0.940109,-0.709216)">
        <g
           id="use6"
           transform="translate(45.011002,22.521)">
          <path
             d="m 15.34375,-14.171875 c 0.84375,-1.34375 1.609375,-1.9375 2.875,-2.03125 0.25,-0.03125 0.4375,-0.03125 0.4375,-0.46875 0,-0.109375 -0.04687,-0.25 -0.265625,-0.25 -0.453125,0 -1.515625,0.04687 -1.953125,0.04687 -0.71875,0 -1.46875,-0.04687 -2.15625,-0.04687 -0.203125,0 -0.453125,0 -0.453125,0.46875 0,0.21875 0.21875,0.25 0.328125,0.25 0.90625,0.07813 1.015625,0.515625 1.015625,0.8125 0,0.375 -0.359375,0.9375 -0.375,0.96875 L 7.015625,-2.078125 5.28125,-15.4375 c 0,-0.71875 1.28125,-0.765625 1.5625,-0.765625 0.375,0 0.59375,0 0.59375,-0.46875 0,-0.25 -0.28125,-0.25 -0.34375,-0.25 -0.421875,0 -0.921875,0.04687 -1.34375,0.04687 H 4.359375 c -1.8125,0 -2.546875,-0.04687 -2.578125,-0.04687 -0.140625,0 -0.4375,0 -0.4375,0.4375 0,0.28125 0.171875,0.28125 0.5625,0.28125 1.265625,0 1.34375,0.21875 1.421875,0.84375 l 1.96875,15.28125 C 5.375,0.453125 5.375,0.515625 5.71875,0.515625 c 0.296875,0 0.421875,-0.0625 0.671875,-0.46875 z m 0,0"
             id="path10" />
        </g>
      </g>
      <g
         fill="#000000"
         fill-opacity="1"
         id="g8"
         transform="matrix(0.352778,0,0,0.352778,-0.940109,-0.709216)">
        <g
           id="use7"
           transform="translate(64.554001,13.526)">
          <path
             d="m 6.8125,-10.578125 c 0.03125,-0.34375 0.03125,-0.9375 -0.625,-0.9375 -0.390625,0 -0.703125,0.3125 -0.640625,0.640625 v 0.3125 L 5.890625,-6.71875 2.71875,-9.015625 C 2.5,-9.140625 2.453125,-9.1875 2.28125,-9.1875 c -0.34375,0 -0.671875,0.34375 -0.671875,0.6875 0,0.390625 0.25,0.5 0.5,0.625 L 5.625,-6.1875 2.203125,-4.53125 c -0.390625,0.1875 -0.59375,0.296875 -0.59375,0.671875 0,0.359375 0.328125,0.6875 0.671875,0.6875 0.171875,0 0.21875,0 0.84375,-0.46875 L 5.890625,-5.65625 5.53125,-1.484375 c 0,0.515625 0.4375,0.640625 0.640625,0.640625 0.296875,0 0.671875,-0.171875 0.671875,-0.640625 l -0.375,-4.171875 3.171875,2.3125 c 0.21875,0.125 0.265625,0.171875 0.453125,0.171875 0.34375,0 0.65625,-0.34375 0.65625,-0.6875 0,-0.375 -0.21875,-0.5 -0.515625,-0.65625 C 8.75,-5.25 8.703125,-5.25 6.734375,-6.171875 l 3.421875,-1.65625 C 10.5625,-8.03125 10.75,-8.125 10.75,-8.5 c 0,-0.375 -0.3125,-0.6875 -0.65625,-0.6875 -0.1875,0 -0.234375,0 -0.84375,0.46875 l -2.78125,2 z m 0,0"
             id="path17" />
        </g>
      </g>
    </g>
  </g>
</svg>
